<svg xmlns="http://www.w3.org/2000/svg" width="1200" height="630" viewBox="0 0 1200 630">
  <defs>
    <linearGradient id="panel" x1="0" y1="0" x2="1" y2="1">
      <stop offset="0" stop-color="#f5f8fc"/>
      <stop offset="1" stop-color="#ffffff"/>
    </linearGradient>
    <filter id="shadow" x="-20%" y="-20%" width="140%" height="150%">
      <feDropShadow dx="0" dy="18" stdDeviation="24" flood-color="#10233f" flood-opacity=".14"/>
    </filter>
    <symbol id="rallyMark" viewBox="0 0 42 42">
      <rect width="42" height="42" rx="12" fill="#ffffff"/>
      <circle cx="21" cy="21" r="7" fill="#246bfd"/>
      <path d="M21 14V7M27 18l7-4M27 25l7 5M15 18l-7-4M15 25l-7 5M21 28v7" fill="none" stroke="#246bfd" stroke-width="2.3" stroke-linecap="round"/>
      <circle cx="21" cy="6" r="3.4" fill="#4285f4"/>
      <circle cx="35" cy="13" r="3.4" fill="#ea4335"/>
      <circle cx="35" cy="31" r="3.4" fill="#fbbc04"/>
      <circle cx="7" cy="13" r="3.4" fill="#34a853"/>
      <circle cx="7" cy="31" r="3.4" fill="#7b61d1"/>
      <circle cx="21" cy="36" r="3.4" fill="#16a36a"/>
    </symbol>
  </defs>
  <rect width="1200" height="630" fill="#ffffff"/>
  <rect width="300" height="10" x="0" fill="#4285f4"/>
  <rect width="300" height="10" x="300" fill="#ea4335"/>
  <rect width="300" height="10" x="600" fill="#fbbc04"/>
  <rect width="300" height="10" x="900" fill="#34a853"/>

  <g font-family="Arial, Helvetica, sans-serif">
    <text x="62" y="82" fill="#246bfd" font-size="15" font-weight="700" letter-spacing="2.4">THE ACCOUNTABLE AI TEAM</text>
    <text x="62" y="164" fill="#10233f" font-size="58" font-weight="500" letter-spacing="-3">You already have email.</text>
    <text x="62" y="228" fill="#246bfd" font-size="58" font-weight="500" letter-spacing="-3">Add accountable</text>
    <text x="62" y="292" fill="#246bfd" font-size="58" font-weight="500" letter-spacing="-3">AI teammates.</text>
    <text x="62" y="342" fill="#526178" font-size="20">One familiar message in. One coordinated,</text>
    <text x="62" y="372" fill="#526178" font-size="20">independently verified outcome back.</text>

    <g transform="translate(62 514)">
      <text x="0" y="0" fill="#10233f" font-size="13" font-weight="700">263</text>
      <text x="28" y="0" fill="#758196" font-size="12" font-weight="600" letter-spacing=".8">TESTS</text>
      <text x="115" y="0" fill="#10233f" font-size="13" font-weight="700">6/6</text>
      <text x="147" y="0" fill="#758196" font-size="12" font-weight="600" letter-spacing=".8">LIVE EVALS</text>
      <text x="270" y="0" fill="#10233f" font-size="13" font-weight="700">0</text>
      <text x="286" y="0" fill="#758196" font-size="12" font-weight="600" letter-spacing=".8">SELF-APPROVALS</text>
    </g>

    <g transform="translate(62 552)">
      <use href="#rallyMark" width="42" height="42"/>
      <text x="52" y="27" fill="#10233f" font-size="17" font-weight="700">Rally by Agent9</text>
    </g>
  </g>

  <g transform="translate(720 62)" filter="url(#shadow)" font-family="Arial, Helvetica, sans-serif">
    <rect width="420" height="500" rx="30" fill="url(#panel)" stroke="#d9e0ea"/>
    <g transform="translate(24 22)">
      <use href="#rallyMark" width="42" height="42"/>
      <text x="54" y="17" fill="#10233f" font-size="15" font-weight="700">Rally Research</text>
      <text x="54" y="36" fill="#758196" font-size="11">research@company.com</text>
      <rect x="282" y="6" width="90" height="28" rx="14" fill="#e7f7f0"/>
      <circle cx="299" cy="20" r="4" fill="#16a36a"/>
      <text x="310" y="24" fill="#137333" font-size="9" font-weight="700">AVAILABLE</text>
    </g>

    <g transform="translate(24 84)">
      <rect width="372" height="150" rx="18" fill="#ffffff" stroke="#dfe5ed"/>
      <circle cx="27" cy="28" r="15" fill="#ea4335"/>
      <text x="22" y="33" fill="#ffffff" font-size="11" font-weight="700">M</text>
      <text x="52" y="25" fill="#253952" font-size="12" font-weight="700">Maya Chen</text>
      <text x="52" y="42" fill="#8793a4" font-size="9">to Rally Research · 9:14 AM</text>
      <text x="18" y="72" fill="#10233f" font-size="14" font-weight="700">Where should we invest in AI next quarter?</text>
      <text x="18" y="96" fill="#596a80" font-size="10">Use Drive, Salesforce, and BigQuery. Return a sourced</text>
      <text x="18" y="112" fill="#596a80" font-size="10">recommendation with risks before Thursday.</text>
      <rect x="18" y="123" width="44" height="18" rx="9" fill="#f3f6fa"/><text x="29" y="136" fill="#526986" font-size="8">Drive</text>
      <rect x="68" y="123" width="65" height="18" rx="9" fill="#f3f6fa"/><text x="78" y="136" fill="#526986" font-size="8">Salesforce</text>
      <rect x="139" y="123" width="58" height="18" rx="9" fill="#f3f6fa"/><text x="149" y="136" fill="#526986" font-size="8">BigQuery</text>
    </g>

    <g transform="translate(34 247)">
      <rect width="352" height="66" rx="15" fill="#eaf1ff" stroke="#c8d7f2"/>
      <text x="14" y="18" fill="#174ea6" font-size="9" font-weight="700">BEHIND THE TEAMMATE</text>
      <g transform="translate(14 28)" font-size="8" font-weight="700">
        <rect width="72" height="25" rx="8" fill="#ffffff"/><text x="24" y="16" fill="#415775">PLAN</text>
        <text x="78" y="16" fill="#7a99cf">›</text>
        <rect x="88" width="72" height="25" rx="8" fill="#ffffff"/><text x="103" y="16" fill="#415775">RESEARCH</text>
        <text x="166" y="16" fill="#7a99cf">›</text>
        <rect x="176" width="72" height="25" rx="8" fill="#ffffff"/><text x="192" y="16" fill="#415775">ANALYZE</text>
        <text x="254" y="16" fill="#7a99cf">›</text>
        <rect x="264" width="74" height="25" rx="8" fill="#e7f7f0"/><text x="279" y="16" fill="#137333">✓ VERIFY</text>
      </g>
    </g>

    <g transform="translate(24 326)">
      <rect width="372" height="150" rx="18" fill="#f8fcfa" stroke="#b8ddca"/>
      <use href="#rallyMark" x="12" y="12" width="32" height="32"/>
      <text x="52" y="25" fill="#253952" font-size="12" font-weight="700">Rally Research</text>
      <text x="52" y="42" fill="#8793a4" font-size="9">to Maya Chen · 9:38 AM</text>
      <rect x="290" y="14" width="68" height="22" rx="11" fill="#e7f7f0"/>
      <text x="302" y="28" fill="#137333" font-size="8" font-weight="700">COMPLETED</text>
      <text x="16" y="71" fill="#10233f" font-size="13" font-weight="700">AI investment strategy.pdf</text>
      <text x="16" y="91" fill="#596a80" font-size="10">Recommendation, risks, sources, and decision memo</text>
      <rect x="16" y="107" width="72" height="20" rx="10" fill="#e7f7f0"/><text x="27" y="121" fill="#36705a" font-size="8">14 sources</text>
      <rect x="94" y="107" width="104" height="20" rx="10" fill="#e7f7f0"/><text x="105" y="121" fill="#36705a" font-size="8">3 company systems</text>
      <rect x="204" y="107" width="139" height="20" rx="10" fill="#e7f7f0"/><text x="215" y="121" fill="#36705a" font-size="8">Independently reviewed</text>
    </g>
  </g>
</svg>
